HIERARCHY
ROOT Hips
{
	OFFSET 0.00000 0.00000 0.00000
	CHANNELS 6 Xposition Yposition Zposition Zrotation Yrotation Xrotation 
	JOINT LHipJoint
	{
		OFFSET 0 0 0
		CHANNELS 3 Zrotation Yrotation Xrotation
		JOINT LeftUpLeg
		{
			OFFSET 3.13874 -1.57224 1.49786
			CHANNELS 3 Zrotation Yrotation Xrotation
			JOINT LeftLeg
			{
				OFFSET 2.10955 -5.79594 0.00000
				CHANNELS 3 Zrotation Yrotation Xrotation
				JOINT LeftFoot
				{
					OFFSET 2.41843 -6.64458 0.00000
					CHANNELS 3 Zrotation Yrotation Xrotation
					JOINT LeftToeBase
					{
						OFFSET 0.04713 -0.12948 1.66229
						CHANNELS 3 Zrotation Yrotation Xrotation
						End Site
						{
							OFFSET 0.00000 -0.00000 0.85167
						}
					}
				}
			}
		}
	}
	JOINT RHipJoint
	{
		OFFSET 0 0 0
		CHANNELS 3 Zrotation Yrotation Xrotation
		JOINT RightUpLeg
		{
			OFFSET -3.13988 -1.57224 1.49786
			CHANNELS 3 Zrotation Yrotation Xrotation
			JOINT RightLeg
			{
				OFFSET -2.15006 -5.90725 0.00000
				CHANNELS 3 Zrotation Yrotation Xrotation
				JOINT RightFoot
				{
					OFFSET -2.34496 -6.44273 0.00000
					CHANNELS 3 Zrotation Yrotation Xrotation
					JOINT RightToeBase
					{
						OFFSET -0.08699 -0.23900 1.55223
						CHANNELS 3 Zrotation Yrotation Xrotation
						End Site
						{
							OFFSET -0.00000 -0.00000 0.80281
						}
					}
				}
			}
		}
	}
	JOINT LowerBack
	{
		OFFSET 0 0 0
		CHANNELS 3 Zrotation Yrotation Xrotation
		JOINT Spine
		{
			OFFSET 0.01292 1.96517 -0.16495
			CHANNELS 3 Zrotation Yrotation Xrotation
			JOINT Spine1
			{
				OFFSET 0.02122 1.88666 0.19706
				CHANNELS 3 Zrotation Yrotation Xrotation
				JOINT Neck
				{
					OFFSET 0 0 0
					CHANNELS 3 Zrotation Yrotation Xrotation
					JOINT Neck1
					{
						OFFSET -0.01683 1.81591 0.07903
						CHANNELS 3 Zrotation Yrotation Xrotation
						JOINT Head
						{
							OFFSET 0.00815 1.74013 -0.47700
							CHANNELS 3 Zrotation Yrotation Xrotation
							End Site
							{
								OFFSET -0.00204 1.83225 -0.16933
							}
						}
					}
				}
				JOINT LeftShoulder
				{
					OFFSET 0 0 0
					CHANNELS 3 Zrotation Yrotation Xrotation
					JOINT LeftArm
					{
						OFFSET 3.38482 1.41533 0.19802
						CHANNELS 3 Zrotation Yrotation Xrotation
						JOINT LeftForeArm
						{
							OFFSET 4.32712 -0.00000 0.00000
							CHANNELS 3 Zrotation Yrotation Xrotation
							JOINT LeftHand
							{
								OFFSET 3.28587 -0.00000 -0.00000
								CHANNELS 3 Zrotation Yrotation Xrotation
								JOINT LeftFingerBase
								{
									OFFSET 0 0 0
									CHANNELS 3 Zrotation Yrotation Xrotation
									JOINT LeftHandIndex1
									{
										OFFSET 0.43316 -0.00000 -0.00000
										CHANNELS 3 Zrotation Yrotation Xrotation
										End Site
										{
											OFFSET 0.34922 -0.00000 -0.00000
										}
									}
								}
								JOINT LThumb
								{
									OFFSET 0 0 0
									CHANNELS 3 Zrotation Yrotation Xrotation
									End Site
									{
										OFFSET 0.35456 -0.00000 0.35456
									}
								}
							}
						}
					}
				}
				JOINT RightShoulder
				{
					OFFSET 0 0 0
					CHANNELS 3 Zrotation Yrotation Xrotation
					JOINT RightArm
					{
						OFFSET -3.09725 1.62858 -0.14144
						CHANNELS 3 Zrotation Yrotation Xrotation
						JOINT RightForeArm
						{
							OFFSET -4.29104 -0.00000 0.00000
							CHANNELS 3 Zrotation Yrotation Xrotation
							JOINT RightHand
							{
								OFFSET -3.22720 -0.00000 -0.00000
								CHANNELS 3 Zrotation Yrotation Xrotation
								JOINT RightFingerBase
								{
									OFFSET 0 0 0
									CHANNELS 3 Zrotation Yrotation Xrotation
									JOINT RightHandIndex1
									{
										OFFSET -0.54362 -0.00000 -0.00000
										CHANNELS 3 Zrotation Yrotation Xrotation
										End Site
										{
											OFFSET -0.43828 -0.00000 -0.00000
										}
									}
								}
								JOINT RThumb
								{
									OFFSET 0 0 0
									CHANNELS 3 Zrotation Yrotation Xrotation
									End Site
									{
										OFFSET -0.44497 -0.00000 0.44497
									}
								}
							}
						}
					}
				}
			}
		}
	}
}
MOTION
Frames: 15
Frame Time: 0.0416667
0.00 0.00 0.00 0 0 0 0 0 0 -21 0 0 0 0 0 0 0 0 0 0 0 0 0 0 21 0 0 0 0 0 0 0 0 0 0 0 0 0 0 0 0 0 0 0 0 0 0 -16 0 0 21 0 0 11 0 0 0 -8 0 0 0 0 0 0 0 0 0 0 0 0 0 0 0 0 0 0 0 0 8 0 0 0 0 0 0 0 0 0 0 0 0 0 0 0 0 0
0.00 0.00 0.00 -171.8150 55.5122 -163.4670 0.0000 0.0000 0.0000 -24.4415 -28.9928 -1.0398 0.6338 5.0937 14.1761 0.9797 -3.5655 -17.8500 9.9308 -17.3707 -59.2567 0.0000 0.0000 0.0000 40.0306 24.6434 18.0108 -0.0770 1.7899 -4.9254 -4.4522 -19.7634 -49.6307 -0.4130 -4.1253 11.4293 7.1720 3.8406 7.1764 -0.8669 6.5589 -9.5636 -6.1907 2.4792 -13.7106 8.5236 1.4880 -16.0863 -3.5568 2.8491 35.6538 -2.3018 2.6230 15.3682 -0.0000 -0.0000 0.0000 -78.5701 18.0304 13.6667 19.6692 -30.2418 -5.3638 -0.0000 -0.0000 5.1353 25.7608 28.0503 12.7856 -7.1250 0.0000 -0.0000 -5.5670 60.5042 -2.1083 -0.0000 -0.0000 0.0000 76.3900 -15.9966 34.1266 -15.5138 24.8570 -3.4390 0.0000 -0.0000 -11.9386 -21.2035 -18.4075 6.9841 7.1250 -0.0000 -0.0000 6.8315 -49.5026 -0.7616
0.00 0.00 0.00 -171.9320 58.4253 -163.7660 0.0000 0.0000 0.0000 -26.0683 -27.0615 0.0861 0.7849 5.6558 15.7890 1.3557 -2.7492 -21.2824 11.0081 -17.9390 -62.8079 0.0000 0.0000 0.0000 33.0625 10.7038 5.9126 -0.0148 -0.7844 2.1557 -1.7867 -12.7599 -32.5881 -0.4160 4.1402 -11.4714 5.5700 3.4367 7.5777 -0.4501 5.7762 -9.1107 -4.7251 2.2812 -13.7054 4.9743 -2.9456 -16.4371 -2.1850 -3.2369 37.4698 -2.1837 -0.1614 15.9167 0.0000 0.0000 0.0000 -79.5997 18.8779 11.9125 19.2680 -29.7503 -5.1632 -0.0000 -0.0000 5.5655 26.0916 28.4832 13.1455 -7.1250 0.0000 -0.0000 -5.3967 61.0375 -2.1120 0.0000 0.0000 0.0000 75.4458 -15.6530 35.1948 -15.9372 25.4354 -3.6189 0.0000 -0.0000 -12.3031 -22.3426 -18.1388 7.2915 7.1250 -0.0000 -0.0000 5.6551 -49.3999 -0.6153
0.00 0.00 0.00 -172.6760 63.3971 -164.0420 0.0000 0.0000 0.0000 -28.4198 -25.3734 2.3569 0.5536 4.7661 13.2426 1.7195 -3.9201 -23.8497 9.3100 -17.0031 -57.1562 0.0000 0.0000 0.0000 27.8035 1.5841 -10.5632 -1.5687 -7.9032 22.4204 -0.9422 -4.7341 -20.6346 -1.9653 8.7933 -25.1510 2.3598 2.4479 8.5526 0.5177 4.0146 -8.4332 -1.5914 1.7947 -13.9701 1.9569 -6.1560 -16.1505 -1.1864 -7.7143 37.6640 -2.0310 -2.3995 15.9324 0.0000 0.0000 0.0000 -82.2434 19.0494 7.2428 18.3117 -28.5545 -4.6973 -0.0000 -0.0000 8.3050 24.6254 28.4512 12.3185 -7.1250 0.0000 -0.0000 -7.0760 60.6391 -2.7055 0.0000 0.0000 0.0000 72.6228 -14.4809 39.1992 -16.4041 26.0656 -3.8218 0.0000 -0.0000 -11.4443 -24.0388 -17.3740 7.5867 7.1250 -0.0000 -0.0000 3.8271 -48.8533 -0.3642
0.00 0.00 0.00 -123.5980 85.6926 -110.8450 0.0000 0.0000 0.0000 -25.7531 -1.1192 -1.2125 2.9503 10.6142 30.9895 1.0706 4.6338 -21.7353 10.8512 -17.8615 -62.2975 0.0000 0.0000 0.0000 33.8222 10.0218 -23.5756 -1.0372 -6.4774 18.1761 -0.4261 -9.0184 -18.7496 -2.1204 9.1124 -26.1477 1.0429 0.7569 10.5016 1.0645 1.4754 -7.6433 0.2482 0.7109 -14.3945 5.4990 -3.3705 -17.6079 -3.4352 -4.5766 36.4584 -3.1403 -1.2171 15.5549 0.0000 0.0000 0.0000 -81.4574 16.6628 14.8744 23.8624 -35.0184 -7.6274 -0.0000 -0.0000 4.3168 27.3518 26.8666 13.1577 -7.1250 0.0000 -0.0000 -3.2028 59.6500 -1.1463 0.0000 0.0000 0.0000 73.6950 -21.5841 32.4743 -14.2229 23.0524 -2.9148 0.0000 -0.0000 -12.7264 -21.3152 -16.7565 6.4184 7.1250 -0.0000 -0.0000 6.2989 -47.7901 -0.4352
0.00 0.00 0.00 -100.3820 84.5011 -88.4433 0.0000 0.0000 0.0000 -21.5140 1.0107 -13.1909 7.6419 15.8494 51.2623 -0.2683 12.2701 -13.2313 10.1595 -17.4986 -60.0201 0.0000 0.0000 0.0000 37.1950 8.2426 -17.0922 -0.6031 -4.9710 13.8258 -0.5669 -7.9542 -19.2876 -2.2438 9.3565 -26.9170 2.3267 1.1820 11.0878 1.4178 2.3056 -7.1418 -0.2777 0.9912 -14.1376 5.0980 -3.4884 -17.5941 -2.9780 -4.7899 36.4111 -2.9115 -1.3011 15.5489 0.0000 0.0000 0.0000 -81.8246 16.6919 15.3404 23.8194 -34.9727 -7.6028 -0.0000 -0.0000 4.4385 26.5094 27.4326 12.9415 -7.1250 0.0000 -0.0000 -4.4155 60.0421 -1.6225 0.0000 0.0000 0.0000 74.1634 -21.2559 33.1934 -14.5488 23.5138 -3.0436 0.0000 -0.0000 -13.0412 -20.3759 -15.9509 5.8281 7.1250 -0.0000 -0.0000 6.9919 -46.8150 -0.3147
0.00 0.00 0.00 -85.8888 81.7963 -73.3993 0.0000 0.0000 0.0000 -13.7399 -12.4244 -39.2917 8.9137 16.7518 55.7911 -1.2338 19.3288 -9.7018 11.6163 -18.2237 -64.7673 0.0000 0.0000 0.0000 41.2460 9.1396 -2.5553 -0.0292 -1.1022 3.0302 -0.2521 -11.7478 -19.7934 -2.7210 10.2292 -29.7220 5.4224 2.0912 11.4423 1.6289 4.1388 -7.0476 -2.2028 1.5711 -14.0381 0.9242 -2.7082 -18.6698 0.1668 -2.9876 40.0514 -0.5155 -0.4717 18.0743 -0.0000 -0.0000 0.0000 -82.3452 18.8376 14.9496 23.5788 -34.7157 -7.4653 -0.0000 -0.0000 5.0615 26.3556 28.5442 13.3189 -7.1250 0.0000 -0.0000 -5.1184 61.1677 -2.0186 -0.0000 -0.0000 0.0000 71.9929 -17.3322 37.4696 -15.9186 25.4102 -3.6110 0.0000 -0.0000 -12.6922 -21.8207 -17.9652 7.0402 7.1250 -0.0000 -0.0000 6.1163 -49.1355 -0.6259
0.00 0.00 0.00 -83.5944 80.9939 -71.3085 0.0000 0.0000 0.0000 -9.2000 -18.2542 -41.3920 4.5998 12.9185 39.0640 -0.0242 11.4718 -15.9803 13.2233 -18.8613 -69.8175 0.0000 0.0000 0.0000 42.9141 10.2068 3.8255 -0.0007 0.1698 -0.4666 -0.0060 -14.9040 -21.2257 -3.0206 10.7284 -31.3692 6.5735 2.3585 11.4459 1.6016 4.6934 -6.9330 -2.9911 1.7317 -13.7855 -0.0976 -3.0443 -18.8173 0.6705 -3.2583 40.6292 -0.1485 -0.6336 18.4997 0.0000 -0.0000 0.0000 -82.1063 19.5080 13.6081 22.5493 -33.5922 -6.8873 -0.0000 -0.0000 5.3064 25.1038 27.8523 12.3466 -7.1250 0.0000 -0.0000 -6.2244 60.1371 -2.3039 0.0000 -0.0000 0.0000 71.1618 -15.5424 37.1628 -17.1252 27.0225 -4.1441 0.0000 -0.0000 -12.8895 -20.5859 -18.7373 6.8796 7.1250 -0.0000 -0.0000 7.5231 -49.7486 -0.8852
0.00 0.00 0.00 -74.9854 79.1706 -64.7819 0.0000 0.0000 0.0000 -6.1676 -26.2020 -38.6614 3.0855 10.8322 31.7160 0.3284 2.1194 -11.8116 8.2908 -16.3291 -53.6036 0.0000 0.0000 0.0000 40.1280 -3.9605 7.9240 -0.6806 -5.2747 14.6939 -0.7790 -3.9907 -18.5857 -3.3924 11.3048 -33.3147 3.4123 2.3165 9.2420 2.9071 4.2449 -7.8805 0.3910 1.9368 -13.8858 0.3753 -3.2316 -17.1311 0.5389 -3.3416 43.2146 -0.2469 -0.4441 19.6365 0.0000 0.0000 0.0000 -81.6870 24.0244 7.8367 21.5879 -32.5082 -6.3630 -0.0000 -0.0000 7.2519 26.6623 29.3745 13.8365 -7.1250 0.0000 -0.0000 -5.1811 62.1118 -2.1591 0.0000 0.0000 0.0000 67.6736 -16.9181 34.5064 -22.2598 33.2694 -6.7278 0.0000 -0.0000 -14.5902 -21.7402 -16.7254 6.5465 7.1250 -0.0000 -0.0000 5.8874 -47.8189 -0.4108
0.00 0.00 0.00 -77.3217 80.5046 -68.8659 0.0000 0.0000 0.0000 -11.9315 -25.5560 -30.9848 2.7516 10.2816 29.8935 0.4656 -0.8576 -12.6195 6.6300 -15.0122 -47.4606 0.0000 0.0000 0.0000 34.0894 -9.9870 -3.7426 -4.1331 -12.3354 36.9290 0.3044 -9.7746 -2.5470 -0.5149 4.5993 -12.7692 0.7414 1.8383 10.5019 3.1049 3.1672 -7.2773 2.3019 1.6787 -14.1257 2.2678 -3.3188 -16.5678 -1.0079 -3.5139 43.2418 -1.3740 -0.4169 19.3640 -0.0000 -0.0000 0.0000 -81.9093 21.9222 8.4966 21.8283 -32.7824 -6.4926 -0.0000 -0.0000 8.0992 26.5534 29.6506 13.8867 -7.1250 0.0000 -0.0000 -5.4592 62.3703 -2.3086 -0.0000 -0.0000 0.0000 66.9175 -19.2372 34.5029 -22.4275 33.4568 -6.8201 0.0000 -0.0000 -16.0149 -21.9118 -17.7667 6.9975 7.1250 -0.0000 -0.0000 5.9776 -48.9409 -0.5829
0.00 0.00 0.00 -69.2572 81.9594 -62.0814 0.0000 0.0000 0.0000 -17.0044 -23.8915 -23.4612 2.0879 9.0468 25.9419 0.5142 -3.0250 -12.8479 4.7667 -13.1162 -39.8050 0.0000 0.0000 0.0000 29.9142 -6.8914 -19.0301 -10.6705 -17.7700 61.7067 0.5615 -13.2694 -6.9213 -1.6153 8.0141 -22.7570 -1.6309 1.6758 12.9645 2.9624 2.4606 -6.6967 3.6150 1.5480 -15.0608 2.6835 -3.1040 -16.5521 -1.4488 -3.1589 43.3137 -1.5987 -0.2822 19.3887 0.0000 0.0000 0.0000 -81.0752 18.3731 11.4799 22.6094 -33.6589 -6.9206 -0.0000 -0.0000 9.4405 25.6921 25.3681 11.6466 -7.1250 0.0000 -0.0000 -4.4757 57.6759 -1.3908 0.0000 0.0000 0.0000 65.7604 -20.1725 35.3099 -22.0150 32.9940 -6.5940 0.0000 -0.0000 -14.7610 -20.8408 -18.2393 6.7946 7.1250 -0.0000 -0.0000 7.1360 -49.2704 -0.7549
0.00 0.00 0.00 -58.4226 82.2066 -51.4403 0.0000 0.0000 0.0000 -19.1488 -22.6081 -19.3924 1.6192 8.0232 22.7845 0.5871 -3.7674 -13.6824 3.5292 -11.5061 -34.0064 0.0000 0.0000 0.0000 27.8167 -1.5888 -31.9726 -15.7223 -19.5555 77.4032 0.0224 -7.2335 -9.7864 -1.5869 7.9468 -22.5526 -2.8843 1.7413 14.0557 2.9137 2.2500 -6.2886 4.3194 1.5593 -15.3015 2.6832 -2.7956 -17.0532 -1.4432 -2.7023 43.6132 -1.5223 -0.0998 19.7525 -0.0000 -0.0000 0.0000 -79.9856 16.2937 14.6616 24.8556 -36.0561 -8.2048 -0.0000 -0.0000 9.1634 27.5561 26.6576 13.1765 -7.1250 0.0000 -0.0000 -2.8833 59.4778 -1.0199 -0.0000 -0.0000 0.0000 64.7355 -20.0814 35.8529 -21.6616 32.5925 -6.4026 0.0000 -0.0000 -13.8039 -21.0040 -17.7774 6.6860 7.1250 -0.0000 -0.0000 6.8542 -48.8134 -0.6474
0.00 0.00 0.00 -54.7037 81.9197 -47.8973 0.0000 0.0000 0.0000 -19.7450 -22.0586 -16.8806 1.3170 7.2686 20.5135 0.6484 -3.7880 -14.3981 3.0176 -10.7235 -31.3531 0.0000 0.0000 0.0000 27.1822 1.2780 -38.6409 -18.3739 -19.9365 85.2407 1.9555 23.8393 10.0960 -1.6113 8.0046 -22.7282 -3.1861 1.7412 14.7937 2.9924 2.1731 -6.0968 4.5983 1.5575 -15.5467 2.5246 -2.6298 -17.4284 -1.2129 -2.4769 43.9921 -1.3443 0.0092 20.1425 -0.0000 0.0000 0.0000 -79.2766 14.8832 15.8737 25.7735 -36.9841 -8.7510 -0.0000 -0.0000 9.1221 28.7678 29.4067 15.0868 -7.1250 0.0000 -0.0000 -2.6474 62.7012 -1.1388 -0.0000 0.0000 0.0000 64.2710 -20.0283 36.0320 -21.4818 32.3864 -6.3060 0.0000 -0.0000 -13.3775 -21.7105 -17.7394 6.9170 7.1250 -0.0000 -0.0000 6.1647 -48.8812 -0.5922
0.00 0.00 0.00 -51.9868 81.7867 -45.7740 0.0000 0.0000 0.0000 -20.6978 -21.4706 -13.6817 1.0207 6.4273 18.0293 0.7155 -3.9881 -15.1292 2.5564 -9.9398 -28.7819 0.0000 0.0000 0.0000 26.4021 3.7759 -44.8998 -19.8901 -19.9997 89.6786 10.2804 49.8015 43.0128 -1.6458 8.0858 -22.9749 -3.6412 1.7244 15.7663 3.1071 2.0309 -5.7907 5.0276 1.5418 -15.7999 2.6250 -2.4535 -17.3584 -1.3531 -2.1754 43.9639 -1.3702 0.1152 20.1074 0.0000 -0.0000 0.0000 -78.6098 13.6631 16.9892 27.0489 -38.2258 -9.5294 -0.0000 -0.0000 9.0888 24.8982 34.9249 14.8810 -7.1250 0.0000 -0.0000 -11.3021 67.2480 -6.0834 0.0000 -0.0000 0.0000 63.8237 -20.1961 35.9009 -21.4575 32.3584 -6.2930 0.0000 -0.0000 -12.8762 -22.4262 -17.8525 7.2109 7.1250 -0.0000 -0.0000 5.5019 -49.1109 -0.5593
0.00 0.00 0.00 -50.5339 81.8980 -45.2581 0.0000 0.0000 0.0000 -21.8993 -21.0233 -10.1035 0.7736 5.6161 15.6744 0.7813 -4.3114 -15.8032 2.0575 -8.9847 -25.7476 0.0000 0.0000 0.0000 25.5641 5.7384 -50.8367 -19.2726 -19.9873 87.8728 -34.2366 52.8444 102.9412 -1.9768 8.8176 -25.2265 -4.2053 1.6828 16.9255 3.2496 1.8165 -5.3180 5.5790 1.5001 -15.9572 3.0462 -2.2322 -17.1049 -1.8313 -1.8006 43.5972 -1.6021 0.2371 19.7785 0.0000 -0.0000 0.0000 -78.0371 12.5153 18.1213 28.6660 -39.7222 -10.5466 -0.0000 -0.0000 8.7911 28.4486 28.9940 14.7146 -7.1250 0.0000 -0.0000 -2.8407 62.1803 -1.1872 0.0000 -0.0000 0.0000 63.3532 -20.2813 35.5978 -21.4423 32.3410 -6.2849 0.0000 -0.0000 -12.6731 -23.1571 -18.0408 7.5455 7.1250 -0.0000 -0.0000 4.8383 -49.4254 -0.5291
